<svg width="16" height="16" viewBox="0 0 16 16" fill="none" xmlns="http://www.w3.org/2000/svg">
<rect width="16" height="16" rx="4" fill="#141414"/>
<path d="M7.89773 11.9091V2.81818H8.48011V11.9091H7.89773ZM9.85795 5.54545C9.81534 5.18561 9.64252 4.90625 9.33949 4.70739C9.03646 4.50852 8.66477 4.40909 8.22443 4.40909C7.90246 4.40909 7.62074 4.46117 7.37926 4.56534C7.14015 4.66951 6.95313 4.81274 6.81818 4.99503C6.68561 5.17732 6.61932 5.38447 6.61932 5.61648C6.61932 5.81061 6.66548 5.97751 6.75781 6.11719C6.85251 6.2545 6.97325 6.36932 7.12003 6.46165C7.26681 6.55161 7.42069 6.62618 7.58168 6.68537C7.74266 6.74219 7.89062 6.78835 8.02557 6.82386L8.7642 7.02273C8.9536 7.07244 9.1643 7.1411 9.39631 7.22869C9.63068 7.31629 9.8544 7.43584 10.0675 7.58736C10.2829 7.73651 10.4605 7.92827 10.6001 8.16264C10.7398 8.39702 10.8097 8.68466 10.8097 9.02557C10.8097 9.41856 10.7067 9.77367 10.5007 10.0909C10.2971 10.4081 9.99882 10.6603 9.60582 10.8473C9.2152 11.0343 8.74053 11.1278 8.18182 11.1278C7.66098 11.1278 7.20999 11.0438 6.82884 10.8757C6.45005 10.7076 6.15175 10.4732 5.93395 10.1726C5.71851 9.87192 5.59659 9.52273 5.56818 9.125H6.47727C6.50095 9.39962 6.59328 9.62689 6.75426 9.80682C6.91761 9.98437 7.12358 10.117 7.37216 10.2045C7.62311 10.2898 7.89299 10.3324 8.18182 10.3324C8.51799 10.3324 8.81984 10.2779 9.08736 10.169C9.35488 10.0578 9.56676 9.90388 9.72301 9.70739C9.87926 9.50852 9.95739 9.27652 9.95739 9.01136C9.95739 8.76989 9.88991 8.57339 9.75497 8.42188C9.62003 8.27036 9.44247 8.14725 9.2223 8.05256C9.00213 7.95786 8.7642 7.875 8.50852 7.80398L7.61364 7.5483C7.04545 7.38494 6.59564 7.15175 6.2642 6.84872C5.93277 6.54569 5.76705 6.14915 5.76705 5.65909C5.76705 5.25189 5.87713 4.89678 6.0973 4.59375C6.31984 4.28835 6.61813 4.05161 6.99219 3.88352C7.36861 3.71307 7.78883 3.62784 8.25284 3.62784C8.72159 3.62784 9.13826 3.71188 9.50284 3.87997C9.86742 4.04569 10.1563 4.27296 10.3693 4.56179C10.5848 4.85062 10.6984 5.1785 10.7102 5.54545H9.85795Z" fill="white"/>
</svg>
